<?xml version="1.0" encoding="utf-8"?>
<!-- Generator: Adobe Illustrator 23.1.0, SVG Export Plug-In . SVG Version: 6.00 Build 0)  -->
<svg version="1.1" id="Слой_1" xmlns="http://www.w3.org/2000/svg" xmlns:xlink="http://www.w3.org/1999/xlink" x="0px" y="0px"
	 viewBox="0 0 500 500" style="enable-background:new 0 0 500 500;" xml:space="preserve">
<style type="text/css">
	.st0{fill:#FE6A00;}
	.st1{fill:#FEA464;}
	.st2{fill:#FE7819;}
	.st3{fill:#FEF0E6;}
	.st4{fill:#FE8834;}
	.st5{fill:#FE7F25;}
	.st6{fill:#FE8027;}
	.st7{fill:#FE8835;}
	.st8{fill:#FE9952;}
	.st9{fill:#FED9BF;}
	.st10{fill:#FEA261;}
	.st11{fill:#FEE2CF;}
	.st12{fill:#FE964D;}
	.st13{fill:#FEB581;}
	.st14{fill:#FEB17A;}
	.st15{fill:#FEECDF;}
	.st16{fill:#FEAF77;}
	.st17{fill:#FEBC8E;}
	.st18{fill:#FECDAB;}
	.st19{fill:#FE8128;}
	.st20{fill:#FE954A;}
	.st21{fill:#FE8B39;}
	.st22{fill:#FEEADC;}
	.st23{fill:#FEDDC5;}
	.st24{fill:#FED1B0;}
	.st25{fill:#FEC39A;}
	.st26{fill:#FEA05E;}
	.st27{fill:#FEAE75;}
	.st28{fill:#FEBC8C;}
	.st29{fill:#FEDCC4;}
	.st30{fill:#FEE0CB;}
	.st31{fill:#FECAA6;}
	.st32{fill:#FE9D58;}
	.st33{fill:#FEBF93;}
	.st34{fill:#FEBF92;}
	.st35{fill:#FECAA4;}
	.st36{fill:#FEB27C;}
	.st37{fill:#FEA769;}
	.st38{fill:#FEDDC6;}
	.st39{fill:#FEE8D8;}
	.st40{fill:#F86700;}
	.st41{fill:#E76100;}
	.st42{fill:#FE7400;}
	.st43{fill:#FE7300;}
	.st44{fill:#FEDFC9;}
	.st45{fill:#FE8D00;}
	.st46{fill:#FC9100;}
	.st47{fill:#FC8E00;}
	.st48{fill:#FC9000;}
	.st49{fill:#FA8A00;}
	.st50{fill:#FB9000;}
	.st51{fill:#F68A00;}
	.st52{fill:#FA8F00;}
	.st53{fill:#FB8C00;}
	.st54{fill:#FB8F00;}
	.st55{fill:#FE9100;}
	.st56{fill:#FEFEFE;}
</style>
<g>
	<path class="st0" d="M499.94,144.13c0,0.32,0,0.64,0,0.96c-0.29,0.27-0.23,0.62-0.24,0.96c0.01,0.34-0.05,0.69,0.24,0.96
		c0,4.78,0,9.55,0,14.33c-0.32,0.3-0.21,0.69-0.24,1.05c0.05,0.45-0.14,0.94,0.24,1.34c0,2.07,0,4.14,0,6.21
		c-0.53,0.68-0.46,1.49-0.49,2.29c-0.01,0.4-0.18,0.79-0.16,1.18c0.29,6.53-0.97,12.94-1.38,19.42c-0.38,6.08-1.18,12.12-1.63,18.19
		c-0.28,3.86-0.44,7.79-0.88,11.59c-0.58,4.95-0.72,9.95-1.49,14.88c-0.47,3.04-0.77,6.16-0.66,9.23c0.14,3.86-1.16,7.52-1.16,11.34
		c-0.01,5.56-1.01,11.04-1.37,16.57c-0.39,6.08-1.1,12.13-1.59,18.19c-0.28,3.43-1.31,6.9-0.28,10.39
		c-1.15,5.22-0.84,10.6-1.66,15.86c-1.11,7.08-1.33,14.23-2.19,21.33c-0.62,5.12-0.59,10.31-1.07,15.45
		c-0.62,6.72-1.23,13.45-1.8,20.17c-0.54,6.36-1.35,12.65-2.71,18.86c-3.49,15.85-9.63,30.58-18.48,44.21
		c-6.18,9.53-13.34,18.24-21.68,25.9c-11.74,10.78-24.92,19.43-39.7,25.53c-8.99,3.71-18.18,6.74-27.81,8.27
		c-2.81,0.45-5.66,0.76-8.51,0.8c-0.47,0.18-0.97,0.11-1.45,0.12c-0.36,0-0.71,0.01-1.07-0.03c-0.45-0.17-0.92-0.21-1.4-0.21
		c-1.33,0.02-2.66-0.11-3.97,0.23c-0.5,0.01-1,0-1.51,0.01c-0.78,0-1.56,0-2.33,0c-0.8,0-1.59,0-2.39,0c-1.21,0-2.42,0-3.62,0
		c-0.79,0-1.58,0-2.37,0c-0.76,0-1.53,0-2.29,0c-0.72,0.1-1.48-0.23-2.16,0.24c-0.32,0-0.64,0-0.95,0
		c-0.44-0.41-0.98-0.17-1.47-0.24c-0.31,0-0.63,0-0.94,0c-0.32,0-0.65,0-0.97,0c-0.34,0-0.68,0-1.02,0c-0.24,0-0.47,0-0.71,0
		c-0.38,0-0.75,0-1.13,0c-8.56-0.47-17.1-1.03-25.63-1.77c-6.64-0.57-13.28-1.17-19.93-1.72c-7.59-0.62-15.18-1.32-22.77-2.02
		c-6.48-0.6-12.96-1.16-19.45-1.73c-6.4-0.57-12.81-1.19-19.21-1.68c-7.04-0.54-14.06-1.44-21.13-1.69
		c-6.67-0.23-13.29-1.12-19.94-1.61c-7.68-0.56-15.29-1.73-22.98-2.27c-8.07-0.57-16.13-1.44-24.19-2.16
		c-7.59-0.68-15.2-1.18-22.74-2.38c-11.45-1.83-22.46-5.09-33.04-9.82c-12.72-5.68-24.24-13.21-34.71-22.43
		c-12.01-10.59-21.69-22.97-29.35-36.99C9.5,398.75,4.77,385.3,2.23,371.09c-0.87-4.85-0.95-9.79-1.08-14.69
		c-0.35-13.12,0.02-26.24,1.06-39.31c0.78-9.82,1.72-19.63,2.61-29.44c0.61-6.64,1.12-13.3,1.69-19.95
		c0.67-7.84,1.38-15.67,2.09-23.5c0.56-6.25,1.15-12.5,1.65-18.76c0.52-6.49,1.19-12.98,1.68-19.47c0.5-6.58,1.19-13.14,1.7-19.71
		c0.6-7.68,1.33-15.36,2.03-23.03c0.56-6.09,1.13-12.18,1.64-18.28c0.51-6.02,1.06-12.03,1.55-18.05c0.72-8.89,1.94-17.7,4.22-26.34
		c5.04-19.15,13.77-36.46,26.41-51.64c15.51-18.64,34.55-32.56,57.38-40.96c9.01-3.32,18.17-6.27,27.91-6.67
		c0.68-0.03,1.43-0.04,2.07-0.42c0.64,0,1.27,0,1.91,0c0.43,0.41,0.96,0.17,1.45,0.24c0.3,0,0.61,0,0.91,0s0.6,0,0.9,0
		c0.3,0,0.59,0,0.89,0c0.38-0.03,0.79,0.09,1.1-0.24c6.36,0,12.72,0,19.09,0c0.31,0.33,0.72,0.21,1.1,0.24c0.29,0,0.59,0,0.88,0
		c0.3,0,0.59,0,0.89,0c0.29,0,0.59,0,0.88,0c0.29,0,0.59,0,0.88,0c0.38-0.03,0.78,0.09,1.1-0.24c0.8,0,1.59,0,2.39,0
		c2.2,0.83,4.54,0.59,6.8,0.7c8.56,0.4,17.09,1.02,25.62,1.81c6.55,0.61,13.12,1.17,19.68,1.69c7.75,0.61,15.49,1.35,23.24,2.02
		c6.48,0.56,12.96,1.15,19.44,1.76c6.4,0.6,12.8,1.14,19.2,1.7c6.56,0.57,13.12,1.15,19.69,1.69c7.75,0.63,15.49,1.35,23.24,2.03
		c6.48,0.56,12.96,1.15,19.44,1.76c6.4,0.6,12.81,1.05,19.2,1.71c5.44,0.56,10.91,0.86,16.35,1.53c10.54,1.3,20.72,3.94,30.67,7.63
		c13.77,5.12,26.3,12.42,37.58,21.74c13.16,10.87,24.13,23.65,32.49,38.65c6.72,12.05,11.46,24.79,14.44,38.23
		c0.76,3.43,0.68,6.95,1.32,10.38c0.19,0.86,0.06,1.74,0.1,2.61c0,0.35,0,0.7,0,1.05c0,0.22,0,0.45,0,0.67c0,0.32,0,0.65,0,0.97
		c0,0.31,0,0.62,0,0.94c0,0.3,0,0.6,0,0.91C499.73,143.4,499.61,143.81,499.94,144.13z"/>
	<path class="st1" d="M355.35,499.43c1.41-0.48,2.86-0.48,4.32-0.39c0.06,0.08,0.12,0.16,0.18,0.24c-0.04,0.21-0.17,0.34-0.36,0.4
		c-0.29,0.02-0.59,0.02-0.89,0.02c-0.29,0-0.59,0-0.88,0c-0.47,0.06-0.98-0.16-1.4,0.24c-0.32,0-0.64,0-0.95,0
		C355.05,499.78,355.04,499.61,355.35,499.43z"/>
	<path class="st2" d="M345.35,499.47c1.28,0.01,2.55,0.01,3.83,0.02c0.32,0.16,0.31,0.31-0.01,0.46c-1.27,0-2.54,0-3.82,0
		C345.03,499.79,345.03,499.63,345.35,499.47z"/>
	<path class="st3" d="M499.32,136.08c0.21-0.02,0.41-0.05,0.62-0.07c0,0.96,0,1.91,0,2.87c-0.15,0.33-0.28,0.33-0.41-0.01
		C499.46,137.93,499.39,137.01,499.32,136.08z"/>
	<path class="st4" d="M340.58,499.47c0.8,0,1.59,0,2.39,0c0.32,0.15,0.32,0.31,0,0.47c-0.8,0-1.59,0-2.39,0
		C340.26,499.79,340.26,499.63,340.58,499.47z"/>
	<path class="st5" d="M342.96,499.94c0-0.16,0-0.31,0-0.47c0.8,0,1.59,0,2.39,0c0,0.16,0,0.32,0,0.47
		C344.55,499.94,343.76,499.94,342.96,499.94z"/>
	<path class="st6" d="M349.17,499.94c0-0.15,0.01-0.31,0.01-0.46c0.8,0,1.59,0,2.38,0.01c0.31,0.16,0.31,0.31-0.01,0.45
		C350.76,499.94,349.96,499.94,349.17,499.94z"/>
	<path class="st7" d="M351.55,499.94c0-0.15,0.01-0.3,0.01-0.45c0.79,0,1.59-0.01,2.38-0.01c0.31,0.16,0.31,0.31-0.01,0.46
		C353.14,499.94,352.35,499.94,351.55,499.94z"/>
	<path class="st8" d="M340.58,499.47c0,0.16,0,0.32,0,0.47c-0.64,0-1.27,0-1.91,0C339.16,499.2,339.9,499.47,340.58,499.47z"/>
	<path class="st9" d="M360.69,499.39c0.29,0.04,0.59,0.07,0.88,0.11c0.32,0.15,0.32,0.3-0.01,0.44c-0.64,0-1.27,0-1.91,0
		c-0.33-0.17-0.31-0.31,0.03-0.42l-0.05-0.08C359.98,499.17,360.34,499.21,360.69,499.39z"/>
	<path class="st10" d="M499.94,163.71c-0.58-0.34-0.42-0.89-0.4-1.41c0.11-0.35,0.24-0.36,0.4-0.03
		C499.94,162.75,499.94,163.23,499.94,163.71z"/>
	<path class="st11" d="M140.19,1.34c-0.53-0.01-1.27,0.57-1.44-0.49c0.48,0,0.95,0,1.43,0C140.5,1.01,140.5,1.17,140.19,1.34z"/>
	<path class="st12" d="M353.94,499.94c0-0.15,0-0.31,0.01-0.46c0.47-0.02,0.94-0.03,1.41-0.05c0.01,0.17,0.01,0.34,0.02,0.51
		C354.89,499.94,354.41,499.94,353.94,499.94z"/>
	<path class="st13" d="M336.27,499.52c0.53-0.04,1.1-0.2,1.44,0.42c-0.48,0-0.95,0-1.43,0
		C335.95,499.81,335.95,499.67,336.27,499.52z"/>
	<path class="st14" d="M356.32,499.94c0.43-0.36,0.94-0.44,1.48-0.41c0.3,0.17,0.29,0.31-0.05,0.41
		C357.28,499.94,356.8,499.94,356.32,499.94z"/>
	<path class="st15" d="M361.57,499.94c-0.01-0.15-0.01-0.3,0.01-0.44c0.46-0.04,0.92-0.09,1.38-0.13c0.02,0.19,0.03,0.38,0.05,0.57
		C362.53,499.94,362.05,499.94,361.57,499.94z"/>
	<path class="st10" d="M144,0.85c-0.19,0.41-0.54,0.51-0.95,0.48c-0.32-0.16-0.32-0.32,0-0.48C143.36,0.85,143.68,0.85,144,0.85z"/>
	<path class="st16" d="M143.05,0.85c0,0.16,0,0.32,0,0.48c-0.32,0-0.64,0-0.95,0c-0.32-0.16-0.32-0.32,0-0.49
		C142.41,0.85,142.73,0.85,143.05,0.85z"/>
	<path class="st17" d="M142.09,0.85c0,0.16,0,0.33,0,0.49c-0.32,0-0.64,0-0.95,0c-0.32-0.16-0.32-0.32,0-0.49
		C141.45,0.85,141.77,0.85,142.09,0.85z"/>
	<path class="st18" d="M141.14,0.85c0,0.16,0,0.33,0,0.49c-0.32,0-0.64,0-0.95,0c0-0.16,0-0.33,0-0.49
		C140.5,0.85,140.82,0.85,141.14,0.85z"/>
	<path class="st19" d="M499.94,146.99c-0.16-0.32-0.32-0.63-0.48-0.95c0.16-0.33,0.32-0.33,0.48,0
		C499.94,146.36,499.94,146.68,499.94,146.99z"/>
	<path class="st20" d="M499.94,162.28c-0.13,0.01-0.26,0.02-0.4,0.03c-0.04-0.4,0.07-0.73,0.4-0.98
		C499.94,161.64,499.94,161.96,499.94,162.28z"/>
	<path class="st21" d="M499.94,146.04c-0.16,0-0.32,0-0.48,0c0.16-0.32,0.32-0.64,0.48-0.96
		C499.94,145.4,499.94,145.72,499.94,146.04z"/>
	<path class="st22" d="M331.99,499.94c0-0.14-0.01-0.28-0.01-0.42c0.32,0,0.64,0,0.96,0c0.33,0.14,0.33,0.28,0,0.42
		C332.63,499.94,332.31,499.94,331.99,499.94z"/>
	<path class="st23" d="M333.41,499.52c0.32,0,0.63,0.01,0.95,0.01c0.34,0.13,0.34,0.27,0.01,0.41c-0.32,0-0.64,0-0.95,0
		c-0.15-0.09-0.2-0.18-0.16-0.28C333.31,499.57,333.36,499.52,333.41,499.52z"/>
	<path class="st24" d="M334.38,499.94c0-0.14-0.01-0.28-0.01-0.41c0.32,0,0.64,0,0.95,0c0.33,0.13,0.34,0.27,0.01,0.42
		C335.01,499.94,334.69,499.94,334.38,499.94z"/>
	<path class="st25" d="M335.33,499.94c0-0.14,0-0.28-0.01-0.42c0.32,0,0.64,0,0.95-0.01c0.01,0.14,0.01,0.28,0.01,0.42
		C335.97,499.94,335.65,499.94,335.33,499.94z"/>
	<path class="st26" d="M499.94,144.13c-0.39-0.22-0.43-0.58-0.4-0.97c0.15-0.34,0.28-0.33,0.4,0.02
		C499.94,143.49,499.94,143.81,499.94,144.13z"/>
	<path class="st27" d="M499.94,143.17c-0.13-0.01-0.27-0.02-0.4-0.02c0-0.32,0-0.64,0-0.95c0.15-0.34,0.28-0.34,0.4,0.02
		C499.94,142.54,499.94,142.85,499.94,143.17z"/>
	<path class="st28" d="M499.94,142.22c-0.13-0.01-0.27-0.02-0.4-0.02c0-0.32,0-0.64,0-0.95c0.15-0.34,0.28-0.34,0.4,0.01
		C499.94,141.58,499.94,141.9,499.94,142.22z"/>
	<path class="st29" d="M168.81,0.85c-0.03,0.72-0.52,0.57-0.96,0.5c-0.32-0.17-0.32-0.34,0-0.5C168.17,0.85,168.49,0.85,168.81,0.85
		z"/>
	<path class="st30" d="M499.53,138.86c0.14-0.01,0.27,0,0.41,0.01c0,0.32,0,0.64,0,0.96c-0.13,0.34-0.26,0.34-0.39,0
		C499.54,139.51,499.54,139.19,499.53,138.86z"/>
	<path class="st31" d="M499.94,141.26c-0.13-0.01-0.27-0.02-0.4-0.01c0-0.32,0-0.64,0-0.96c0.14-0.2,0.27-0.18,0.4,0.02
		C499.94,140.63,499.94,140.94,499.94,141.26z"/>
	<path class="st18" d="M167.86,0.85c0,0.17,0,0.33,0,0.5c-0.32,0-0.64-0.01-0.95-0.01c-0.32-0.17-0.32-0.33,0-0.49
		C167.22,0.85,167.54,0.85,167.86,0.85z"/>
	<path class="st32" d="M164.04,1.33c-0.41,0.01-0.75-0.09-0.95-0.48c0.32,0,0.64,0,0.95,0C164.36,1.01,164.36,1.17,164.04,1.33z"/>
	<path class="st33" d="M166.9,0.85c0,0.16,0,0.33,0,0.49c-0.32,0-0.64,0-0.95,0c-0.32-0.17-0.32-0.33,0-0.49
		C166.27,0.85,166.58,0.85,166.9,0.85z"/>
	<path class="st34" d="M357.75,499.94c0.01-0.14,0.02-0.27,0.05-0.41c0.31,0,0.62,0,0.93-0.01c0.33,0.16,0.32,0.3-0.02,0.42
		C358.39,499.94,358.07,499.94,357.75,499.94z"/>
	<path class="st35" d="M358.71,499.94c0-0.14,0.01-0.28,0.02-0.42c0.32,0,0.64,0,0.97,0c-0.01,0.14-0.02,0.28-0.03,0.42
		C359.34,499.94,359.03,499.94,358.71,499.94z"/>
	<path class="st36" d="M165.95,0.85c0,0.16,0,0.33,0,0.49c-0.32,0-0.64,0-0.95-0.01c-0.32-0.16-0.32-0.32,0-0.48
		C165.31,0.85,165.63,0.85,165.95,0.85z"/>
	<path class="st37" d="M164.99,0.85c0,0.16,0,0.32,0,0.48c-0.32,0-0.64,0-0.95,0c0-0.16,0-0.32,0-0.48
		C164.36,0.85,164.68,0.85,164.99,0.85z"/>
	<path class="st38" d="M499.94,140.31c-0.13-0.01-0.26-0.02-0.4-0.02c-0.06-0.16-0.06-0.31,0.01-0.46c0.13,0,0.26,0,0.39,0
		C499.94,139.99,499.94,140.15,499.94,140.31z"/>
	<path class="st39" d="M333.41,499.52c0.01,0.14,0.01,0.28,0.01,0.42c-0.16,0-0.32,0-0.48,0c0-0.14,0-0.28,0-0.42
		C333.1,499.52,333.26,499.52,333.41,499.52z"/>
	<path d="M468.4,355.24c-2.25,12.64-5.57,24.94-11.18,36.56c-17.34,35.92-45.02,59.96-82.97,72.06c-7.74,2.47-15.69,4.45-23.78,5.33
		c-5.42,0.59-10.93,0.47-16.39,0.48c-55.33,0.03-110.65,0.01-165.98,0.02c-9.25,0-18.37-1.08-27.5-2.52
		c-5.25-0.83-10.42-2-15.35-3.78c-26.78-9.64-49.4-25.1-66.48-48.22c-10.42-14.1-17.8-29.63-22.29-46.57
		c-1.48-5.6-2.9-11.21-3.55-16.97c-0.11-1.02-0.04-2.05-0.05-3.08c-0.33-2.5-0.75-5-0.75-7.51c-0.03-60.26-0.02-120.51-0.02-180.77
		c0-2.38,0.46-4.71,0.74-7.06c2.17-19.95,8.11-38.66,18.44-55.91c6.41-10.71,14.18-20.34,23.22-28.94
		c17.26-16.41,37.59-27.14,60.63-32.88c10.07-2.51,20.31-3.78,30.67-3.79c56.85-0.03,113.69-0.16,170.53,0.05
		c29.69,0.11,56.43,9.45,80.18,27.34c5.85,4.4,11.42,9.12,16.36,14.48c14.63,15.86,25.39,33.99,31.44,54.83
		c1.68,5.81,2.8,11.74,4.05,17.64c1.05,3.03,0.79,6.24,1.21,9.36c1.61,11.94,0.68,23.95,0.71,35.93
		c0.12,49.32,0.11,98.65-0.03,147.97C470.26,344.61,469.43,349.97,468.4,355.24z"/>
	<path class="st40" d="M468.4,355.24c3.16-62.66,0.54-125.37,1.42-188.05c0.1-7.1-0.8-14.12-1.42-21.16
		c1.67,2.88,0.71,6.18,1.47,9.21c0.19,0.74-0.01,1.58,0.5,2.26c0.44,0.83,0.23,1.72,0.23,2.58c0.01,60.37,0.01,120.74,0,181.11
		c0,0.86,0.22,1.75-0.23,2.58c-0.7,2.43-0.86,4.93-0.94,7.44C469.37,352.63,469.38,354.06,468.4,355.24z"/>
	<path class="st41" d="M32.85,153.2c-0.18,4.04-0.52,8.09-0.52,12.13c-0.03,57.18-0.03,114.36,0.01,171.55
		c0,3.89,0.35,7.77,0.53,11.66c-0.88-2.25-0.99-4.65-0.99-7c-0.04-60.76-0.03-121.53-0.01-182.29
		C31.88,157.2,32.05,155.14,32.85,153.2z"/>
	<path class="st42" d="M470.36,343.76c0-62.09,0-124.18,0-186.26c0.03-0.31-0.05-0.73,0.13-0.92c0.27-0.28,0.31,0.1,0.32,0.28
		c0.03,0.56,0.03,1.11,0.03,1.67c0,61.55,0,123.09,0,184.64c0,0.24,0.05,0.49-0.01,0.71c-0.11,0.44,0.34,1.04-0.36,1.3
		C470.43,344.71,470.39,344.24,470.36,343.76z"/>
	<path class="st43" d="M250.84,30.94c-30.44,0-60.88,0-91.33-0.02c-0.71,0-1.51,0.35-2.15-0.28c0.7-0.06,1.4-0.17,2.1-0.17
		c60.96-0.01,121.93-0.01,182.89,0.01c0.69,0,1.43-0.23,2.08,0.21c-0.63,0.5-1.36,0.24-2.03,0.24
		C311.88,30.94,281.36,30.94,250.84,30.94z"/>
	<path class="st42" d="M251.21,470.33c30.36,0,60.72,0,91.09,0.01c0.7,0,1.4,0.11,2.1,0.18c-0.66,0.6-1.45,0.27-2.17,0.28
		c-60.72,0.02-121.45,0.02-182.17,0.02c-0.48,0-0.96,0.03-1.43-0.02c-0.28-0.02-0.54-0.16-0.82-0.25c0.3-0.07,0.59-0.18,0.89-0.2
		c0.63-0.03,1.27-0.01,1.91-0.01C190.81,470.33,221.01,470.33,251.21,470.33z"/>
	<path class="st44" d="M499.03,171.35c0.74,2.51-0.02,5-0.21,7.47c-0.78,10.36-1.74,20.72-2.67,31.07
		c-0.9,10.03-1.9,20.06-2.76,30.1c-0.89,10.35-1.65,20.72-2.53,31.08c-0.87,10.2-1.83,20.39-2.75,30.58
		c-0.06,0.7-0.07,1.44-0.61,2.01c-0.19-3.75,0.45-7.45,0.76-11.15c2.03-24,4.17-48,6.27-71.99c1.36-15.52,2.72-31.05,4.09-46.57
		C498.69,173.06,498.89,172.21,499.03,171.35z"/>
	<path class="st14" d="M360.69,499.39c-0.35,0.02-0.7,0.04-1.04,0.06c0.01-0.14,0.02-0.27,0.02-0.41
		C360.08,498.98,360.45,499.01,360.69,499.39z"/>
	<path class="st45" d="M162.66,140.77c-1.07-0.78-1.25-1.67-0.79-2.99c1.33-3.83,3.76-7.1,5.3-10.8c4.02-5.61,3.69-6.33,7.65-7.28
		c2.98-0.76,8.13-1.14,8.13-1.14s31.84,0.01,47.76,0.03c0.86,0,1.74-0.19,2.58,0.19c3.8,2.74,5.63,6.96,8.04,10.74
		c2.3,3.59,4.45,7.28,6.66,10.92c0.93,3.59,3.38,6.37,5.17,9.49c3,5.2,6.19,10.29,9.23,15.47c1.8,3.07,3.7,6.09,5.55,9.13
		c0.35,0.58,0.71,1.04,1.41,1.14c4.32,7.33,8.7,14.64,12.93,22.02c1.74,3.02,0.49,5.29-2.97,5.12c-4.88-0.24-9.75-0.95-14.62-1.47
		c-7.49-1.45-10.87-7.29-14.1-13.26c-3.24-5.98-6.5-11.93-10.02-17.75c-0.26-0.44-0.6-0.72-1.06-0.9c-2.25-3.92-4.8-7.65-7.09-11.55
		c-1.84-3.14-3.95-6.28-6.09-9.32c-1-1.42-1.97-2.86-2.86-4.35c-1.27-2.14-3.18-2.88-5.56-2.87c-3.65,0.01-7.3-0.06-10.95-0.1
		c-1.54-0.42-3.11-0.48-4.69-0.46c-10.84,0.17-21.68,0.58-32.53,0.48C167.38,141.24,165.02,141.07,162.66,140.77z"/>
	<path class="st45" d="M278.11,359.41c2.68,1.27,5.55,1.07,8.39,1.07c15.81,0,31.62,0.01,47.43,0.01c0.64,0,1.28-0.05,1.9,0.06
		c2.08,0.34,3.02,2.05,2.24,3.97c-0.45,1.1-0.93,2.19-1.75,3.09c-4.43,4.89-8.86,9.78-13.28,14.68c-0.86,0.95-1.9,1.3-3.18,1.31
		c-15.57,0.06-31.14,0.21-46.7,0.2c-4.91,0-8.88-2.04-11.48-6.4c-7.06-11.82-14.14-23.63-20.89-35.63c-1.3-2.31-3.15-4.31-3.81-6.97
		c-0.04-1.7-1.17-2.9-1.97-4.24c-5.58-9.35-11.12-18.72-16.4-28.24c-1.07-1.94-0.54-3.35,1.54-3.61c3.83-0.47,7.64-1.02,11.47-1.5
		c0.38-0.05,0.79-0.07,1.14,0.19c2.24,0.12,4.27,0.86,6.16,2.06c0.09,0.47-0.36,0.52-0.58,0.74c3.63,0.92,5.7,3.82,7.81,6.5
		c2.85,3.61,4.46,7.97,6.73,11.93c1.63,2.84,2.5,6.16,5.13,8.39l0.03,0.05c0.98,3.46,2.95,6.45,4.78,9.44
		c3.91,6.4,7.72,12.86,11.53,19.32c0.94,1.6,2.48,2.66,3.52,4.16C278.04,359.84,277.88,359.55,278.11,359.41z"/>
	<path class="st45" d="M184.05,354.75c4.42,7.82,9.29,15.38,13.36,23.4c0.69,1.36,1.28,2.84,1.55,4.34
		c0.31,1.72-1.09,2.17-2.43,2.18c-2.62,0.01-5.23-0.09-7.85-0.21c-3.09-0.14-6.21-0.15-9.26-0.57c-3.3-0.46-5.54-2.68-7.36-5.35
		c-4.81-7.11-9.02-14.56-12.85-22.24c-0.23-1.44-1.05-2.6-1.8-3.8c-3.55-5.68-7.28-11.26-10.39-17.21
		c-1.9-3.64-1.74-7.23,0.05-10.84c0.7-1.41,1.6-2.73,2.11-4.23c0.96-3.72,3.38-6.7,5.16-10c0.5-0.92,0.66-2.09,1.64-2.73
		c1.19-0.27,1.52-1.36,1.98-2.23c5.37-10.22,11.2-20.18,16.89-30.22c3.05-5.72,6.35-11.3,9.53-16.95c1.08-1.92,2.17-3.84,3.22-5.77
		c0.41-0.77,0.84-1.53,1.33-2.24c2.22-3.21,3.1-3.29,5.73-0.55c2.64,4.04,5.45,8.01,7.11,12.55c1.36,3.72,0.61,7.54-0.7,11.22
		c-2.51,7.09-7.52,12.72-11.1,19.19c-3.16,5.71-6.32,11.43-9.39,17.19c-2.16,4.05-4.75,7.94-6.7,12.08
		c-1.31,2.77-3.6,5.13-3.67,8.55c-0.06,2.74,1.7,4.38,2.89,6.41c0.1,0.62,0.24,1.2,0.58,1.77c2.99,4.91,6.02,9.79,8.96,14.73
		C182.98,353.79,183.38,354.41,184.05,354.75z"/>
	<path class="st45" d="M318.64,241.12c-1.89,3.4-3.76,6.8-5.68,10.18c-0.43,0.75-0.92,1.5-1.53,2.1c-1.28,1.26-2.46,1.67-3.9-0.1
		c-2.47-3.06-5.34-5.88-7-9.45c-2.39-5.14-2.26-10.48-0.08-15.73c2.66-6.39,6.8-11.88,10.58-17.59c1.53-0.4,1.92-1.87,2.55-2.98
		c5.44-9.62,10.93-19.22,16.21-28.93c0.61-1.12,1.09-2.27,1.19-3.55c1.04-4.31-0.71-7.9-2.81-11.46
		c-7.48-12.68-15.1-25.28-22.11-38.24c-0.6-1.11-1.08-2.29-1.52-3.48c-0.79-2.15-0.06-3.56,2.3-3.62c6.04-0.14,12.1-0.28,18.12,0.11
		c3.05,0.2,4.88,3.08,6.19,5.52c1.32,2.47,2.94,4.75,4.24,7.22c0.09,2.69,1.98,4.6,3.15,6.75c3.81,7,7.89,13.87,11.99,20.71
		c1.91,3.18,3.88,6.33,5.45,9.69c0.23,0.49,0.53,0.04,0.73,0.22c1.31,4.5-0.01,8.38-2.78,11.93c-1.76,1.23-2.49,3.22-3.51,4.95
		c-5.89,10.01-11.27,20.31-17.21,30.3c-4.19,7.05-8.09,14.28-12.32,21.31C320.09,238.34,319.13,239.6,318.64,241.12z"/>
	<path class="st45" d="M222.62,203.34c-4.64,5.32-9.73,10.2-14.77,15.12c-1.31,1.28-3.07,1.75-5.02,1.75
		c-14.69-0.04-29.38-0.08-44.07,0.08c-4.35,0.05-8.71,0.24-13.07,0.27c-3.05,0.02-5.56,1.3-7.05,3.94
		c-4.23,7.48-8.67,14.86-12.46,22.58c-0.82,1.66-1.47,3.5-3.11,4.63c-2.56,2.57-3.7,6.01-5.54,9.02c-1.73,2.83-3.19,5.82-5.1,8.55
		c-1.2,1.72-1.93,1.73-3.36,0.23c-0.83-0.87-1.36-1.94-2.07-2.89c-1.9-2.54-3.09-5.48-4.97-8.06c-2.22-3.04-2.24-6.6-0.88-10.12
		c1.03-2.67,2.33-5.21,3.79-7.66c0.12-0.2,0.28-0.38,0.38-0.6c-0.07,0.13-0.15,0.25-0.23,0.37c-2.22,3.75-4.57,7.54-4.85,11.97
		c-0.17,2.64,0.75,5.29,2.68,7.38c0.7,0.76,1.77,1.47,0.96,2.78c-5.3-6.03-6.36-9.68-2.85-16.91c3.46-7.14,7.57-13.93,11.84-20.56
		c2.99-4.63,5.27-9.61,8.2-14.24c1.7-1.93,2.41-4.44,3.85-6.53c1.54-2.24,3.08-4.38,5.73-5.51c1.15-0.49,2.27-0.62,3.46-0.61
		c13.65,0.1,27.3-0.27,40.93-0.63c14.84-0.39,29.67-0.07,44.5-0.31c4.8-0.08,5.41,0.98,3.25,5.26
		C222.69,202.87,222.66,203.1,222.62,203.34z"/>
	<path class="st45" d="M278.51,297.8c3.71-4.46,7.4-8.93,11.13-13.36c1.74-2.06,4.22-2.34,6.69-2.51c8.9-0.63,17.78,0.29,26.68,0.15
		c9.3-0.14,18.61-0.49,27.89-0.03c7.06,0.35,11.07-2.67,14.07-8.71c3.64-7.33,7.61-14.53,12.01-21.42c2.64-4.15,4.73-8.6,7.48-12.63
		c1.56-2.28,2.58-4.94,4.81-6.87c1.64-1.42,2.56-0.91,3.42,0.38c3.18,4.71,5.89,9.68,8.02,14.96c1.61,5.56-1.54,9.87-4.02,14.18
		c-5.57,9.65-11.64,19-16.65,28.98c-1.39,2.76-3.15,5.33-4.76,7.98c-1.38,2.28-3.49,3.85-5.85,5.07c-0.28,0.05-0.55,0.07-0.84,0.05
		c-6.2,0.08-12.38-0.23-18.58-0.15c-5.72,0.07-11.46-0.23-17.17,0.06c-16.76,0.85-33.52,0.23-50.27,0.42
		C276.35,304.42,275.76,303.41,278.51,297.8z"/>
	<path class="st45" d="M395.49,198.66c-0.54,7.93-3.32,14.51-10.73,18.61c-3.52,1.95-7.01,3.46-11.1,2.89
		c-1.92-0.27-2.51,1.14-3.06,2.38c-1.89,4.24-4.75,7.9-6.91,11.98c-3.21,6.07-6.69,12.01-10.27,17.88
		c-3.31,5.42-5.98,11.23-9.9,16.27c-1.51,1.95-3.37,1.84-4.67-0.51c-1.57-2.85-2.59-6.04-4.38-8.73c-5.2-7.87-3.41-15,1.8-21.91
		c3.06-4.06,5.56-8.47,8.05-12.89c3.19-5.67,6.31-11.37,9.53-17.03c0.77-1.35,0.36-2.61,0.1-3.9c-1.02-5.05-0.71-9.95,1.4-14.7
		c3.59-8.07,12.51-13.29,21.03-12.29c9.29,1.09,16.79,7.86,18.56,16.7C395.29,195.14,395.52,196.86,395.49,198.66z"/>
	<path class="st45" d="M128.15,326.18c-11.2-0.23-20.4-8.97-20.87-19.81c-0.48-11.27,7.77-20.98,18.99-22.15
		c2.08-0.22,3.31-1.33,3.89-2.94c1.14-3.16,3.13-5.77,4.88-8.53c2.21-3.48,3.99-7.18,5.89-10.82c2.01-3.86,4.19-7.64,6.36-11.41
		c2.94-5.12,5.94-10.21,8.91-15.31c0.04-0.07,0.07-0.14,0.12-0.2c0.98-1.22,1.75-2.97,3.51-2.92c0.69,0.02,1.23,0.45,1.65,1.01
		c0.78,1.03,1.12,2.47,1.12,2.47s6.6,16.84,6.63,17.91c0.08,2.88-0.87,5.65-2.63,8.39c-5.21,8.1-10.24,16.3-14.48,24.97
		c-1.28,2.63-2.62,5.23-4,7.8c-0.51,0.95-0.38,1.73-0.01,2.69c4.25,10.77-0.41,22.19-10.97,27.06
		C134.29,325.69,131.29,326.28,128.15,326.18z"/>
	<path class="st45" d="M183.95,183.8c-5.8,0-11.6,0.09-17.39-0.05c-1.89-0.04-3.1,0.64-4.26,2.01c-5.68,6.69-14.6,8.98-22.36,6.35
		c-8.67-2.94-14.56-10.9-14.64-19.5c-0.09-9.46,5.11-17.25,13.6-20.39c8.44-3.12,17.6-0.75,23.46,6.31
		c1.27,1.53,2.56,2.03,4.43,2.04c16.77,0.07,33.53,0.2,50.3,0.32c4.41,0.03,5.13,1.27,3.54,5.39c-1.04,2.67-2.62,4.84-4.66,6.8
		c-3.15,3.02-6.1,6.25-9.3,9.2c-1.33,1.22-3.18,1.59-5.08,1.57c-5.88-0.06-11.76-0.02-17.63-0.02
		C183.95,183.82,183.95,183.81,183.95,183.8z"/>
	<path class="st45" d="M240.23,362.87c3.65,1.68,6.93,3.97,9.72,6.8c3.2,3.24,4.61,7.55,4.73,11.95
		c0.31,11.35-6.7,20.77-17.36,22.76c-15.92,2.97-29-12.3-23.8-27.7c0.43-1.28,0.78-2.67,1.55-3.72c1.36-1.85,0.97-3.29-0.12-5.12
		c-8.08-13.56-16.08-27.17-24.05-40.8c-0.78-1.34-1.25-2.87-1.76-4.35c-0.96-2.76-0.13-3.97,2.79-4.27c2.4-0.25,4.75,0.26,7.11,0.5
		c3.52,0.35,7.08,0.63,10.51,1.44c1.91,0.45,3.62,1.88,4.94,3.48c3.74,4.54,5.98,9.97,8.77,15.07c0.78,3.55,3.05,6.36,4.8,9.41
		c2.2,3.83,4.8,7.43,6.96,11.29C236.18,361.66,237.74,362.98,240.23,362.87z"/>
	<path class="st45" d="M280.87,333.04c1.04-1.04,2.06-2.42,3.05-3.68c2.44-3.11,5.15-6,8.01-8.76c2.29-2.2,4.98-2.89,7.99-2.85
		c12.79,0.17,25.58,0.2,38.38,0.08c1.84-0.02,3.08-0.59,4.34-1.87c6.13-6.24,15.59-7.86,23.52-4.15
		c8.31,3.89,12.93,12.12,12.11,21.6c-0.69,8.03-7.1,15.48-15.23,17.7c-9.23,2.52-19.38-1.47-23.44-9.2c-0.84-1.84-2.43-2-4.18-1.99
		c-13.31,0.04-26.62,0-39.93,0.42c-3.92,0.12-7.89-0.08-11.83-0.34c-4.29-0.28-4.79-2.37-3.4-5.43
		C280.46,334.07,280.77,333.59,280.87,333.04z"/>
	<path class="st45" d="M303.65,182.42c-3.55-0.4-7.13-0.6-10.64-1.24c-4.02-0.74-6.58-3.68-8.28-7.1
		c-5.17-10.42-10.82-20.57-16.74-30.59c-1.5-2.53-3.24-4.02-6.06-4.97c-7.95-2.7-13.65-10.68-13.77-18.61
		c-0.14-9.28,4.84-17.71,13.05-20.62c8.67-3.07,16.76-1.68,22.91,4.73c6.58,6.85,8.11,16.32,3.86,24.2
		c-1.25,2.31-1.33,4.01,0.16,5.98c0.28,0.36,0.39,0.85,0.58,1.28c-0.39,0.33-0.72,0.16-1.03-0.14c0.06,0.15,0.2,0.25,0.28,0.38
		c3.4,5.24,6.3,10.76,9.34,16.2c4.28,7.64,8.85,15.11,13,22.82c0.79,1.46,1.3,3.03,2.05,4.51c0.86,1.7-0.03,2.95-2.14,3.28
		C308.04,182.89,305.85,182.06,303.65,182.42z"/>
	<path class="st46" d="M222.62,203.34c-0.6-1.08,0.13-2,0.38-2.97c0.39-1.54-0.11-2.28-1.74-2.27c-2.54,0.02-5.09,0-7.63,0
		c-10.02,0-20.04-0.27-30.04,0.07c-10.16,0.35-20.34,0.05-30.48,0.52c-6.2,0.29-12.38,0.24-18.57,0.34
		c-3.45,0.06-6.15,1.44-8.09,4.22c-1.32,1.88-2.61,3.81-3.41,6c-0.35,0.96-0.78,1.75-1.96,1.74c1.16-4.04,3.34-7.48,6.23-10.49
		c2.63-2.45,5.9-2.91,9.29-2.86c8.74,0.13,17.48-0.35,26.21-0.24c8.9,0.11,17.8-0.08,26.69-0.34c10.24-0.3,20.47-0.24,30.71-0.44
		c4.93-0.09,5.03,1.71,3.36,5.52c-0.1,0.22-0.24,0.41-0.37,0.61C223,202.94,222.81,203.14,222.62,203.34z"/>
	<path class="st47" d="M278.51,297.8c-0.1,0.63-0.15,1.26-0.29,1.88c-0.79,3.51-0.46,3.95,3.25,3.96
		c11.43,0.02,22.87,0.23,34.3-0.05c15.15-0.37,30.3-0.44,45.45-0.4c2.67,0.01,5.33,0.3,7.99,0.46c0.01,0.92-0.7,0.67-1.19,0.71
		c-2.69,0.21-5.39,0.28-8.09,0.25c-16.85-0.19-33.7,0.34-50.54,0.25c-9.69-0.05-19.38-0.02-29.07,0c-1.66,0-3.13-0.37-4.3-1.62
		C275.47,300.79,277.05,299.33,278.51,297.8z"/>
	<path class="st46" d="M303.65,182.42c1.34-0.68,2.76-0.54,4.2-0.46c3.69,0.19,4.37-0.82,2.96-4.07
		c-3.16-7.29-7.59-13.88-11.44-20.79c-3.86-6.91-7.73-13.83-11.6-20.73c-0.5-0.9-1.1-1.75-1.63-2.63c-0.2-0.33-0.49-0.83-0.03-1.03
		c0.47-0.21,0.56,0.4,0.77,0.7c0.53,0.77,0.89,1.71,1.87,2.09c3.72,6.44,7.46,12.86,11.15,19.32c3.58,6.26,7.05,12.58,10.68,18.8
		c1.01,1.73,1.69,3.58,2.51,5.38c1.07,2.35-0.01,4.12-2.62,4.26C308.15,183.37,305.89,182.93,303.65,182.42z"/>
	<path class="st48" d="M318.64,241.12c-0.13-2.15,1.22-3.74,2.19-5.43c8.15-14.25,16.57-28.35,24.52-42.73
		c2.22-4.03,4.72-7.9,7.06-11.86c0.37-0.63,0.79-0.99,1.53-0.68c-3.06,5.44-6.11,10.9-9.19,16.33c-6.12,10.8-12.25,21.6-18.41,32.38
		C324.1,233.04,318.9,240.99,318.64,241.12z"/>
	<path class="st48" d="M369.69,303.63c0.12-0.29,0.17-0.74,0.38-0.85c5.17-2.63,6.97-7.88,9.44-12.48
		c3.9-7.27,7.95-14.42,12.29-21.44c2.78-4.5,5.51-9.07,7.68-13.93c0.59-1.33,0.79-2.73,0.76-4.18c-0.02-1.01-0.2-2.08,0.48-2.99
		c1.58,2.89,1.36,5.01,0.19,7.57c-3.55,7.73-8.45,14.68-12.6,22.07c-3.02,5.39-5.82,10.91-9.03,16.18
		c-1.96,3.22-3.25,7.03-6.79,9.11C371.65,303.28,370.81,303.87,369.69,303.63z"/>
	<path class="st49" d="M223.2,202.75c0.03-0.24,0.03-0.48,0.09-0.71c1.26-4.9,1.26-4.9-3.71-4.9c-5.72,0-11.44-0.25-17.14,0.05
		c-15.86,0.84-31.74-0.04-47.59,0.54c-7.06,0.26-14.11,0.24-21.16,0.34c-2.5,0.03-4.22,1.69-6.37,2.42
		c2.33-3.23,5.93-3.01,9.24-3.11c8.96-0.27,17.92-0.29,26.89-0.41c17.93-0.25,35.86-0.5,53.8-0.74c1.19-0.02,2.38,0.01,3.57,0.02
		c1.52,0.01,3.28-0.14,3.85,1.63C225.23,199.68,224.84,201.47,223.2,202.75z"/>
	<path class="st50" d="M232.76,297.4c-0.17,0.47-1.74-0.8-1.03,0.87c0.22,0.52-0.48,0.46-0.81,0.37c-3.54-0.98-6.88,0.67-10.33,0.85
		c-1.67,0.09-2.3,0.97-1.25,2.74c5.73,9.67,11.36,19.4,17.06,29.08c0.67,1.13,1.39,2.16,0.59,3.49c-3.1-3.84-5.17-8.32-7.69-12.51
		c-3.92-6.53-7.65-13.17-11.38-19.81c-1.27-2.27-0.6-4.07,1.86-4.48C224.56,297.34,232.94,296.93,232.76,297.4z"/>
	<path class="st51" d="M369.69,303.63c0.93-0.31,1.87-0.63,2.8-0.94c-2.51,2.8-6.01,2.18-9.1,2.26c-10.56,0.24-21.13,0-31.69,0.2
		c-17.15,0.32-34.3-0.07-51.45,0.08c-1.72,0.01-3.33-0.25-4.25-1.99c1.83,1.09,3.8,1.4,5.93,1.39c15-0.05,30.01,0.3,45.01-0.12
		c13.33-0.37,26.65-0.24,39.97-0.39c0.79-0.01,1.6,0.04,2.29-0.46C369.37,303.64,369.53,303.64,369.69,303.63z"/>
	<path class="st46" d="M103.87,262.7c-0.08-1.19-0.79-2.02-1.5-2.9c-2.56-3.21-3.3-6.79-1.94-10.71c1.38-4,3.64-7.57,5.7-11.24
		c0.13-0.22,0.63-0.5,0.67-0.46c0.3,0.3-0.02,0.55-0.16,0.81c-1.33,2.61-2.68,5.22-4.01,7.84c-2.59,5.12-2.62,9.92,1.3,14.58
		c1.98,2.35,3.38,5.17,5.07,7.76c1.06,1.64,2,2,3.32,0.05c3.46-5.15,5.96-10.84,9.35-16.01c0.23-0.35,0.14-2.08,1.39-0.71
		c-0.57,1.42-1.25,2.78-1.98,4.12c-1.21,2.21-2.54,4.35-3.68,6.6c-1.2,2.38-2.66,4.63-4.04,6.91c-1.46,2.42-2.9,2.7-4.82,0.62
		C106.59,267.84,105.15,265.3,103.87,262.7z"/>
	<path class="st50" d="M356.72,168.5c-0.2,0.67-0.4,1.33-0.6,2c-0.19-0.64-0.27-1.34-0.59-1.91c-3.13-5.42-6.32-10.81-9.46-16.23
		c-3.69-6.38-7.32-12.78-11.04-19.14c-0.54-0.93-0.7-1.55,0.36-2.09c4.13,7.14,8.24,14.28,12.38,21.42
		c2.63,4.53,5.3,9.03,7.92,13.57C356.12,166.86,356.38,167.7,356.72,168.5z"/>
	<path class="st50" d="M269.37,175.67c-0.11,0.45-0.11,1.24-0.34,1.31c-0.78,0.24-0.69-0.65-0.92-1.04
		c-6.7-11.02-13.36-22.06-20.04-33.1c-0.48-0.8-1.19-1.57-0.07-2.4c3.16,5.09,6.37,10.15,9.48,15.28
		C261.48,162.34,265.41,169.02,269.37,175.67z"/>
	<path class="st52" d="M239.53,169.43c1.06-1.14,1.26,0.02,1.63,0.63c3.72,5.99,7.07,12.2,10.4,18.41
		c2.38,4.45,5.24,8.45,9.62,11.25c1.15,0.73,2.78,0.2,3.52,1.62c-6.14,0.06-9.49-4.17-12.2-8.65
		C247.91,185.1,243.82,177.2,239.53,169.43z"/>
	<path class="st53" d="M280.87,333.04c-1.21,6.35-1.22,6.64,5.19,6.8c7.04,0.18,14.09,0.12,21.15-0.2
		c9.74-0.45,19.51-0.15,29.27-0.11c1.5,0.01,2.79,0.66,3.1,2.4c-0.89-1.21-2.1-1.4-3.54-1.4c-16.64,0.07-33.28,0.08-49.92,0.1
		c-0.63,0-1.27,0-1.9-0.06C278.84,340.06,277.72,337.54,280.87,333.04z"/>
	<path class="st54" d="M330.98,175.06c0.89,0.3,1.14,0.74,0.61,1.67c-4.51,7.99-8.67,16.18-13.45,24.03
		c-1.85,3.04-3.58,6.16-5.38,9.23c-0.39,0.67-0.79,1.56-1.73,0.53C317.68,198.7,324.33,186.88,330.98,175.06z"/>
	<path class="st52" d="M149.18,320.2c0.08,0.89,0.06,1.78-0.45,2.54c-3.89,5.76-2.3,11.11,1.09,16.4c3,4.67,5.91,9.4,8.84,14.12
		c0.57,0.92,1.38,1.84,0.55,3.04c-3.76-5.18-6.85-10.78-10.28-16.17c-1.4-2.2-2.8-4.42-3.53-6.96
		C143.96,328.05,145.89,323.93,149.18,320.2z"/>
	<path class="st50" d="M258.02,327.03c-1.66,0.46-2.06-1.01-2.56-1.92c-2.02-3.67-3.91-7.42-5.82-11.15
		c-2.43-4.76-5.09-9.35-9.69-12.38c-1.31-0.87-2.81-1.45-4.2-2.18c-0.23-0.12-0.65-0.24-0.39-0.64c0.05-0.08,0.43,0.02,0.64,0.09
		c0.96,0.31,1.82,1.02,2.93,0.62c4.04,1.73,6.88,4.91,8.98,8.52C251.52,314.18,254.67,320.66,258.02,327.03z"/>
	<path class="st54" d="M175.49,275.47c-3.23,4.89-5.86,10.12-8.77,15.2c-2.94,5.15-5.78,10.36-8.69,15.53
		c-0.43,0.76-0.7,1.95-2.06,1.28c5.9-10.61,11.8-21.22,17.71-31.83c0.23-0.41,0.55-0.77,0.82-1.15
		C175.45,274.19,175.09,275.22,175.49,275.47z"/>
	<path class="st52" d="M175.49,275.47c-0.33-0.33-0.66-0.65-0.99-0.98c3.67-6.66,7.33-13.32,11.03-19.97
		c1.04-1.87,2.1-3.74,3.33-5.49c2.46-3.49,3.82-3.34,5.8,0.48c-3.36-1.38-4.16-1.09-5.95,2.09c-4.22,7.52-8.44,15.04-12.65,22.56
		C175.82,274.58,175.68,275.03,175.49,275.47z"/>
	<path class="st50" d="M278.11,359.41c0.24,0.54,0.66,0.85,1.19,1.09c0.45,0.21,1.32,0.36,0.94,1c-0.24,0.42-1.07-0.02-1.47-0.33
		c-1.77-1.35-3.59-2.79-4.67-4.69c-4.63-8.2-9.73-16.12-14.45-24.27c-0.87-1.51-2.69-2.94-1.61-5.14c3.23,4.29,5.22,9.31,8.14,13.79
		c3.16,4.85,5.96,9.93,9.01,14.86C276.02,357.05,277.13,358.19,278.11,359.41z"/>
	<path class="st54" d="M240.23,362.87c-2.42,1.01-4.04-0.24-5.19-2.1c-3.88-6.29-8.02-12.41-11.51-18.94
		c-0.5-0.93-0.86-1.9-0.26-2.94c3.74,6.16,7.52,12.29,11.19,18.49C235.89,359.78,237.29,362.11,240.23,362.87z"/>
	<path class="st53" d="M162.66,140.77c8.64,0,17.29-0.1,25.93,0.05c4.61,0.08,9.17-0.67,13.78-0.53c1.6,0.05,3.17,0.15,4.6,0.95
		c-14.03-0.15-28.06,0.7-42.1,0.1C164.1,141.31,163.27,141.49,162.66,140.77z"/>
	<path class="st54" d="M184.05,354.75c-0.87,0.47-1.21-0.04-1.64-0.73c-3.04-4.97-6.12-9.92-9.19-14.87
		c-0.49-0.8-0.64-1.6-0.13-2.45C177.08,342.51,180.79,348.49,184.05,354.75z"/>
	<path class="st55" d="M330.79,283.11c-7.22,0-14.44,0-21.67-0.01c-0.34,0-0.76,0.17-1-0.27c0.3-0.06,0.6-0.18,0.9-0.18
		c14.68-0.01,29.36-0.01,44.05,0c0.3,0,0.6,0.13,0.89,0.19c-0.26,0.4-0.68,0.26-1.03,0.26
		C345.55,283.11,338.17,283.11,330.79,283.11z"/>
	<path d="M386.05,197.66c-0.01,6.39-5.21,11.66-11.62,11.8c-6.17,0.13-11.86-5.66-11.76-11.97c0.1-6.4,5.41-11.59,11.81-11.56
		C380.94,185.98,386.07,191.18,386.05,197.66z"/>
	<path d="M140.33,305.2c0,6.34-5.75,12.25-11.92,12.24c-5.58-0.01-11.46-6.3-11.45-12.25c0.01-6.4,5.27-11.62,11.72-11.62
		C135.19,293.56,140.33,298.7,140.33,305.2z"/>
	<path d="M146.25,160.23c6.46,0.05,11.62,5.27,11.59,11.73c-0.03,6.14-6.1,12.39-11.8,12.15c-6.12-0.26-11.63-6.14-11.58-12.36
		C134.5,165.32,139.76,160.18,146.25,160.23z"/>
	<path d="M233.46,395.47c-6.51,0.02-11.69-5.13-11.69-11.62c0-6.44,5.25-11.76,11.63-11.77c6.34-0.01,11.73,5.35,11.75,11.71
		C245.17,390.2,239.92,395.45,233.46,395.47z"/>
	<path d="M346.25,330.95c0-6.51,5.13-11.64,11.64-11.64c6.45,0.01,11.74,5.23,11.74,11.61c0,6.09-5.82,12.18-11.72,12.27
		C352.07,343.28,346.25,337.17,346.25,330.95z"/>
	<path d="M269.35,107.34c6.41,0.04,11.61,5.31,11.59,11.72c-0.03,6.36-5.34,11.67-11.69,11.68c-6.45,0.01-11.75-5.39-11.69-11.9
		C257.61,112.44,262.88,107.3,269.35,107.34z"/>
</g>
<path class="st48" d="M318.9,240.99c0,0-0.17,0.36-0.46,0.96c-1.87,3.83-8.69,17.4-7.41,8.05"/>
<path class="st48" d="M317.1,243.29h0.34c0,0,5.99-7.34,6.64-15.18c0.65-7.85,0.65-7.85,0.65-7.85"/>
<path class="st48" d="M298.78,223.32"/>
<path class="st48" d="M346.8,247.11c0,0-6.16,22.82-7.94,21.06s-4.38-8.73-4.38-8.73C339.52,259.44,351.01,253.17,346.8,247.11z"/>
<path class="st48" d="M320.91,257.3"/>
<path class="st48" d="M279.55,335.37"/>
<path class="st45" d="M281.13,322.41"/>
<path class="st48" d="M331.94,254.04c0,0,5.52,14.13,6.92,14.13s2.24-8.76,2.24-8.76"/>
<path class="st48" d="M313.4,263.53"/>
<path class="st48" d="M334.64,260.55c0,0,5.45,15.2,9.42,7.43"/>
<path class="st48" d="M308.65,183.24c0,0-26.1,0.34-21.28-9.47"/>
<polyline class="st46" points="125.74,247.98 121.08,255.83 112.63,244.98 "/>
<polyline class="st46" points="100.63,255.31 105.69,266.08 101.06,259.09 "/>
<path class="st45" d="M162.61,235.57c0,0,5.34,10.81,6.63,17.91S161.48,236.7,162.61,235.57z"/>
<path class="st45" d="M160.24,232.15c0,0,5.23,1.49,8.43,25.37"/>
<path class="st45" d="M167.31,260.7c0,0,7.27-5.29-4.22-25.13"/>
<path class="st45" d="M188.74,227.9"/>
<path class="st56" d="M147.58,0.85c0,0-7.86-1.8-15.54,1.51"/>
<path class="st56" d="M174.82,6.03"/>
<path class="st56" d="M181.65,0.36c0,0-34.07,0.49-26.8,0.44s21.98,1.35,21.98,1.35"/>
</svg>
